<?xml version="1.0" encoding="utf-8"?>
<!-- Generator: Adobe Illustrator 25.2.0, SVG Export Plug-In . SVG Version: 6.00 Build 0)  -->
<svg version="1.1" id="Layer_1" xmlns="http://www.w3.org/2000/svg" xmlns:xlink="http://www.w3.org/1999/xlink" x="0px" y="0px"
	 viewBox="0 0 121 50" style="enable-background:new 0 0 121 50;" xml:space="preserve">
<style type="text/css">
	.st0{fill:#FFFFFF;}
</style>
<g>
	<path class="st0" d="M68.88,9.1c-0.85,0-2.88-0.37-5.22-0.74c-1.4-0.22-2.91-0.44-4.35-0.57c-1.02-0.1-2.01-0.15-2.89-0.14
		c-4.26,0.07-8.73-0.08-15.52,1.07c-3.79,0.78-6.28,1.41-6.62,1.22c0,0-1.29-0.48-0.63-1.74c0.12-0.22,0.34-0.37,0.59-0.43
		c2.31-0.48,15.07-3,25.82-1.77c1.51,0.17,2.98,0.42,4.38,0.76c1.93,0.46,3.72,1.1,5.27,1.95C69.71,8.71,70.6,9.1,68.88,9.1z"/>
	<path class="st0" d="M120.76,17.13c0,0-12.27,16.35-13.74,18.28c-1.48,1.92-2.68,2.09-2.86,1.21c-0.32-3,1.81-7.78,2.53-9.28
		c0.12-0.24,0.38-0.38,0.64-0.31c0.37,0.09,0.74,0.09,1.04,0.03c0.39-0.05,0.74-0.23,1.04-0.49c2.24-1.92,3.61-5.57,4.09-8.28
		c0.52-2.45-3.26-3.27-3.8-2.9c-1.63,1.13-6.17,7.81-8.4,11.49c-2.24,3.66-5.92,8.53-6.35,8.28c-0.42-0.25,0.4-2.39,1.7-6.04
		c1.31-3.65,3.43-9.23,3.93-11.27c0.51-2.04-2.66-3.46-4.73-1.44c-1.67,1.6-3.68,4.32-5.33,6.77c-0.38,0.56-1.24,0.12-1-0.52
		c0.74-2.02,1.38-4.11,1.5-5.45c0.04-0.41-0.09-0.84-0.36-1.16c-1.28-1.5-3.07-0.64-4.66,0.64c-0.02,0.01-0.02,0.02-0.04,0.03
		c-2.12,1.95-4.6,5.19-6.53,7.91c-0.4,0.56-1.25,0.09-0.99-0.55c1.17-2.92,1.97-5.15,2.38-6.32c0.27-0.78-0.17-1.65-0.97-1.85
		c-0.63-0.16-1.34-0.16-1.85-0.14c-0.45,0.02-0.84,0.28-1.02,0.7c-0.36,0.82-0.69,1.95-0.78,2.27c-0.02,0.06-0.05,0.13-0.09,0.18
		c-0.63,0.91-6.51,9.27-7.23,10.35c-0.93,1.58-6.41,9.52-5.44,5.08c0.98-4.44,5.33-15.54,5.65-16.65c0.32-1.11-0.17-0.91-0.92-1.53
		c-1.54-1.18-2.05,0.18-2.05,0.18c-2.07,4.18-5.01,13.31-5.01,13.31c-1.19,4.38-1.55,7.27-1.55,7.27c-0.23,3.22,2.64,2.41,3.61,1.57
		c3.27-2.86,6.3-7.03,8.32-10.1c0.37-0.56,1.22-0.15,1.02,0.48c-0.92,2.9-1.99,6.37-2.28,7.74c-0.53,2.56,2.57,1.74,3.2,1.5
		c0.64-0.24,0.74-1.53,1.19-2.76c3.18-8.06,11.16-16.79,11.63-17.19c0.46-0.39,1.13-0.7,0.49,1.15c-0.63,1.85-4.64,13.02-5.33,15.97
		c-0.7,2.96,2.86,2.99,3.54,2.16c0.69-0.84-0.43-1.49,1.87-6.04S96.99,16.6,97.37,16.83c0.37,0.23-0.57,2.03-2.67,6.81
		c-2.1,4.8-2.78,8.06-3.16,10.59c-0.4,2.53,1.2,3.84,2.98,3.27c3.82-1.36,8.12-9.76,8.25-10.03l-0.7,2.32
		c-0.73,2.37-2.08,10.51,2.94,9.42c0.49-0.1,0.95-0.34,1.32-0.69c5.49-5.01,13.89-19.06,14.42-20.17
		C121.3,17.2,120.76,17.13,120.76,17.13z M107.79,25.05c0.84-1.67,2.34-4.58,3.37-6.27c0.34-0.56,1.2-0.19,1.03,0.45
		c-0.15,0.59-0.45,1.37-0.99,2.45c-0.95,1.89-1.78,3.21-2.46,3.99C108.29,26.18,107.48,25.65,107.79,25.05z M61.47,13.36
		c0.7-1.74,1.46-3.46,2.19-5c0.27-0.56,0.52-1.1,0.77-1.6c1.09-2.23,1.98-3.87,2.22-4.31c0.04-0.08,0.06-0.16,0.05-0.26
		c-0.2-1.73-2.92-2.04-3.5-2.09c-0.07-0.01-0.13,0.02-0.17,0.09c-0.14,0.25-0.63,1.13-2.26,4.29C60.54,4.92,60.3,5.43,60.05,6
		c-0.23,0.55-0.48,1.15-0.74,1.78c-2.41,5.98-5.34,15.17-5.34,15.17l-2.37,3.43c-5.91,9.18-7.05,9.3-7.38,9.12
		c-0.33-0.18-0.36-1.12,0.99-5.18c1.35-4.07,4.63-12.52,4.63-12.94c-0.02-1.68-2.42-1.9-2.8-1.49c-0.38,0.41-3.49,8.71-3.49,8.71
		s-5.41,9.87-6.99,10.9c-1.59,1.02-2.03-0.08-1.67-1.45c3.54-13.95,6.08-14.58,5.44-17.06c-0.64-2.49-3.71-1.11-3.71-1.11
		c-3.47,1.99-10.95,13.45-11.18,13.81c1.75-4.3,4.33-10.97,4.86-12.33c0.06-0.16,0.02-0.35-0.09-0.49
		c-1.02-1.34-2.75-0.99-3.48-0.77c-0.21,0.06-0.39,0.23-0.48,0.44c-0.81,1.92-3.82,10.29-3.82,10.29s-3.09,4.92-4.08,6.44
		c-0.99,1.51-3.57,5.82-4.62,4.9c-1.05-0.92-0.5-3.36,1.5-8.42c1.78-4.5,5.07-11.85,5.76-13.41c0.09-0.2,0.09-0.44-0.01-0.64
		c-0.87-1.9-2.63-1.84-3.43-1.7c-0.26,0.05-0.48,0.22-0.61,0.45c-0.9,1.74-2.95,6.6-2.95,6.6S10.81,25.65,9.17,28
		c-1.63,2.34-5.83,8.42-5.83,8.42c0.11-1.14,2.19-7.52,2.93-9.32c0.74-1.81,3.45-7.73,3.25-9.05c-0.26-1.68-1.85-1.99-2.56-2.05
		c-0.21-0.02-0.4,0.1-0.48,0.3C5.54,18.46-0.19,31.88,0,36.23c0,0.76,0.08,2.4,2.08,2.69c0.56,0.09,1.14-0.09,1.55-0.48
		c0.22-0.2,0.41-0.44,0.59-0.67c0.38-0.48,0.72-0.99,1.05-1.5c0.38-0.61,0.78-1.22,1.11-1.85c0.7-1.31,1.98-3.37,2.8-4.61
		c0.56-0.84,1.13-1.69,1.71-2.53c0.56-0.83,1.11-1.66,1.67-2.49c0.13-0.2,0.26-0.39,0.39-0.58c-0.1,0.28-3.32,9.36-3.32,11.62
		c0,2.28,0.29,4.41,3.99,3.98c3.14-0.36,5.89-5.23,6.67-6.74c-0.32,0.72-0.89,2.26-0.77,4.05c-0.03,1.89,1.99,1.74,3.11,1.24
		c0.67-0.3,0.84-1.17,0.84-1.17s3.11-7.37,6.22-11.69c3.11-4.32,6.08-7.98,6.48-7.4c0.4,0.59-1.24,4.27-2.47,7.14
		s-5.24,12.3-0.66,12.95c4.51,0.64,8.6-8.32,8.71-8.59c-1.73,7.05-2.07,8.94-0.39,9.4c3.75,1.2,11.24-11.33,11.49-11.76
		c-0.07,0.2-1.17,3.46-1.53,7.88c-0.98,9.46,1.3,12.43,2.85,13.82c1.89,1.42,3.9,0.95,3.34,0.57c-2.94-1.29-3.41-4.2-3.47-6.39
		c-0.22-3.87,0.27-7.84,1.13-11.62l0.33-1.4C57.24,23.09,60.06,16.88,61.47,13.36z"/>
	
		<ellipse transform="matrix(0.3542 -0.9352 0.9352 0.3542 21.4443 54.9309)" class="st0" cx="50.49" cy="11.94" rx="3.13" ry="2.31"/>
	
		<ellipse transform="matrix(0.3542 -0.9352 0.9352 0.3542 33.5691 73.4157)" class="st0" cx="69.94" cy="12.4" rx="3.13" ry="2.31"/>
	<g>
		<g>
			<g>
				<path class="st0" d="M59.6,41.58l0.03,0.56l-0.04-0.05c0.07-0.17,0.18-0.31,0.34-0.42c0.16-0.1,0.33-0.15,0.52-0.15
					c0.11,0,0.22,0.02,0.31,0.06c0.09,0.04,0.17,0.1,0.22,0.17s0.09,0.16,0.1,0.25l-0.03,0.03c0.07-0.17,0.19-0.3,0.34-0.39
					c0.15-0.09,0.32-0.13,0.5-0.13c0.19,0,0.34,0.06,0.46,0.17c0.11,0.11,0.17,0.26,0.17,0.44v1.47h-0.24v-1.42
					c0-0.12-0.04-0.22-0.11-0.31s-0.18-0.13-0.33-0.14c-0.13,0-0.26,0.03-0.37,0.1c-0.11,0.07-0.21,0.16-0.28,0.27
					s-0.11,0.24-0.12,0.38v1.1h-0.24v-1.42c0-0.12-0.04-0.22-0.12-0.31c-0.07-0.08-0.19-0.13-0.33-0.14c-0.14,0-0.26,0.03-0.38,0.1
					c-0.12,0.07-0.21,0.16-0.28,0.28c-0.07,0.12-0.1,0.25-0.1,0.39v1.08h-0.24v-2.01H59.6z"/>
				<path class="st0" d="M64.16,43.63c-0.19,0-0.37-0.04-0.52-0.13c-0.16-0.09-0.28-0.21-0.37-0.37c-0.09-0.16-0.14-0.34-0.14-0.55
					c0-0.22,0.05-0.42,0.14-0.58c0.1-0.16,0.23-0.28,0.39-0.37c0.17-0.08,0.35-0.13,0.56-0.13c0.18,0,0.35,0.05,0.51,0.16
					s0.27,0.24,0.34,0.4l-0.04,0.07l0.03-0.57h0.22v2.01h-0.24v-0.62l0.05,0.09c-0.02,0.07-0.07,0.14-0.12,0.2s-0.13,0.13-0.21,0.19
					s-0.18,0.1-0.28,0.13C64.38,43.61,64.27,43.63,64.16,43.63z M64.21,43.42c0.15,0,0.29-0.03,0.41-0.09
					c0.12-0.06,0.22-0.15,0.3-0.27c0.08-0.11,0.12-0.24,0.13-0.39v-0.29c-0.03-0.13-0.08-0.24-0.16-0.34s-0.18-0.18-0.3-0.24
					c-0.12-0.06-0.24-0.09-0.38-0.09c-0.15,0-0.29,0.04-0.42,0.11c-0.13,0.07-0.23,0.17-0.3,0.3c-0.08,0.13-0.11,0.28-0.11,0.45
					c0,0.16,0.04,0.3,0.11,0.43c0.08,0.13,0.18,0.23,0.31,0.31C63.92,43.39,64.05,43.42,64.21,43.42z"/>
				<path class="st0" d="M66.07,43.59v-3.92h0.24v3.92H66.07z M66.23,42.86l-0.02-0.24l1.23-1.08l0.15,0.13L66.23,42.86z
					 M66.78,42.28l0.94,1.31h-0.28l-0.83-1.17L66.78,42.28z"/>
				<path class="st0" d="M69.14,43.63c-0.21,0-0.4-0.05-0.56-0.14c-0.16-0.09-0.29-0.22-0.38-0.38c-0.09-0.16-0.14-0.34-0.14-0.54
					c0-0.2,0.05-0.37,0.14-0.54c0.1-0.16,0.23-0.29,0.39-0.39c0.16-0.1,0.34-0.14,0.54-0.14c0.24,0,0.44,0.07,0.61,0.21
					c0.16,0.14,0.28,0.33,0.35,0.55l-1.76,0.68l-0.07-0.18l1.61-0.63l-0.05,0.07c-0.06-0.14-0.15-0.26-0.27-0.36
					s-0.26-0.15-0.44-0.15c-0.15,0-0.29,0.04-0.42,0.11c-0.12,0.08-0.22,0.18-0.3,0.3c-0.07,0.13-0.11,0.27-0.11,0.43
					c0,0.15,0.04,0.29,0.11,0.42c0.07,0.13,0.17,0.24,0.3,0.31c0.13,0.08,0.27,0.12,0.44,0.12c0.11,0,0.22-0.02,0.32-0.06
					c0.1-0.04,0.19-0.09,0.27-0.16l0.12,0.17c-0.1,0.08-0.21,0.14-0.33,0.19C69.4,43.61,69.27,43.63,69.14,43.63z"/>
				<path class="st0" d="M72.74,43.61l-0.95-2.04h0.27l0.87,1.91L72.74,43.61z M72.29,44.56l1.31-2.98h0.24l-1.3,2.98H72.29z"/>
				<path class="st0" d="M74.12,42.57c0-0.2,0.05-0.37,0.14-0.54c0.09-0.16,0.22-0.29,0.39-0.38s0.35-0.14,0.55-0.14
					c0.21,0,0.39,0.05,0.55,0.14c0.16,0.09,0.29,0.22,0.38,0.38c0.09,0.16,0.14,0.34,0.14,0.54c0,0.2-0.05,0.38-0.14,0.54
					s-0.22,0.29-0.38,0.38s-0.35,0.14-0.55,0.14c-0.2,0-0.38-0.04-0.55-0.14c-0.16-0.09-0.29-0.22-0.38-0.38
					C74.16,42.96,74.12,42.78,74.12,42.57z M74.36,42.57c0,0.16,0.04,0.3,0.11,0.43c0.07,0.13,0.17,0.23,0.3,0.31
					c0.13,0.08,0.26,0.11,0.42,0.11c0.15,0,0.29-0.04,0.42-0.11c0.13-0.08,0.22-0.18,0.3-0.31s0.11-0.27,0.11-0.43
					c0-0.16-0.04-0.3-0.11-0.43s-0.17-0.23-0.3-0.31c-0.13-0.08-0.27-0.12-0.42-0.12c-0.16,0-0.3,0.04-0.43,0.12
					c-0.13,0.08-0.22,0.19-0.3,0.32S74.36,42.43,74.36,42.57z"/>
				<path class="st0" d="M77.49,43.65c-0.19,0-0.34-0.06-0.45-0.17c-0.11-0.11-0.17-0.26-0.18-0.44v-1.47h0.24v1.4
					c0.01,0.13,0.05,0.24,0.13,0.32s0.19,0.13,0.35,0.14c0.13,0,0.25-0.03,0.37-0.1c0.11-0.07,0.21-0.16,0.28-0.28
					c0.07-0.12,0.11-0.25,0.11-0.41v-1.07h0.24v2.01h-0.22l-0.03-0.63l0.04,0.14c-0.03,0.1-0.09,0.2-0.18,0.28s-0.19,0.15-0.31,0.2
					C77.75,43.62,77.62,43.65,77.49,43.65z"/>
				<path class="st0" d="M79.56,41.58l0.03,0.62l-0.03-0.08c0.04-0.12,0.12-0.23,0.21-0.32c0.1-0.09,0.2-0.16,0.32-0.21
					c0.12-0.05,0.23-0.07,0.34-0.07l-0.01,0.24c-0.15,0-0.29,0.04-0.42,0.1c-0.13,0.07-0.22,0.16-0.3,0.28s-0.11,0.25-0.11,0.39
					v1.07h-0.24v-2.01H79.56z"/>
				<path class="st0" d="M82.64,40.69h0.25v0.91h0.62v0.2h-0.62v1.79h-0.25V41.8h-0.43v-0.2h0.43V40.69z"/>
				<path class="st0" d="M83.93,40.83c0-0.05,0.02-0.09,0.06-0.12c0.04-0.03,0.08-0.05,0.12-0.05c0.05,0,0.09,0.02,0.12,0.05
					c0.03,0.03,0.05,0.07,0.05,0.12c0,0.05-0.02,0.09-0.05,0.13c-0.03,0.03-0.08,0.05-0.12,0.05c-0.04,0-0.09-0.02-0.12-0.05
					C83.95,40.92,83.93,40.88,83.93,40.83z M83.99,41.58h0.24v2.01h-0.24V41.58z"/>
				<path class="st0" d="M85.23,41.58l0.03,0.56l-0.04-0.05c0.07-0.17,0.18-0.31,0.34-0.42c0.16-0.1,0.33-0.15,0.52-0.15
					c0.11,0,0.22,0.02,0.31,0.06s0.17,0.1,0.22,0.17s0.09,0.16,0.1,0.25l-0.03,0.03c0.07-0.17,0.19-0.3,0.34-0.39
					c0.16-0.09,0.32-0.13,0.5-0.13c0.19,0,0.35,0.06,0.46,0.17c0.11,0.11,0.17,0.26,0.17,0.44v1.47h-0.24v-1.42
					c0-0.12-0.04-0.22-0.11-0.31s-0.18-0.13-0.33-0.14c-0.13,0-0.26,0.03-0.37,0.1c-0.11,0.07-0.21,0.16-0.28,0.27
					s-0.11,0.24-0.12,0.38v1.1h-0.24v-1.42c0-0.12-0.04-0.22-0.12-0.31c-0.07-0.08-0.18-0.13-0.33-0.14c-0.14,0-0.26,0.03-0.38,0.1
					c-0.12,0.07-0.21,0.16-0.28,0.28c-0.07,0.12-0.1,0.25-0.1,0.39v1.08h-0.24v-2.01H85.23z"/>
				<path class="st0" d="M89.82,43.63c-0.21,0-0.4-0.05-0.56-0.14c-0.16-0.09-0.29-0.22-0.38-0.38c-0.09-0.16-0.14-0.34-0.14-0.54
					c0-0.2,0.05-0.37,0.14-0.54c0.1-0.16,0.23-0.29,0.39-0.39c0.16-0.1,0.34-0.14,0.54-0.14c0.24,0,0.44,0.07,0.61,0.21
					c0.16,0.14,0.28,0.33,0.35,0.55l-1.76,0.68l-0.07-0.18l1.61-0.63l-0.05,0.07c-0.06-0.14-0.15-0.26-0.27-0.36
					s-0.26-0.15-0.44-0.15c-0.15,0-0.29,0.04-0.42,0.11c-0.12,0.08-0.22,0.18-0.3,0.3c-0.07,0.13-0.11,0.27-0.11,0.43
					c0,0.15,0.04,0.29,0.11,0.42c0.07,0.13,0.17,0.24,0.3,0.31c0.13,0.08,0.27,0.12,0.44,0.12c0.11,0,0.22-0.02,0.32-0.06
					c0.1-0.04,0.19-0.09,0.27-0.16l0.12,0.17c-0.1,0.08-0.21,0.14-0.33,0.19C90.08,43.61,89.95,43.63,89.82,43.63z"/>
				<path class="st0" d="M93.89,43.63c-0.19,0-0.37-0.05-0.54-0.15c-0.17-0.1-0.29-0.23-0.37-0.39L93.02,43v1.56h-0.24v-3h0.22
					l0.03,0.66l-0.05-0.15c0.09-0.16,0.22-0.29,0.39-0.4c0.17-0.1,0.36-0.16,0.56-0.16c0.19,0,0.37,0.05,0.52,0.14
					c0.16,0.09,0.28,0.22,0.37,0.38c0.09,0.16,0.14,0.34,0.14,0.55c0,0.2-0.05,0.38-0.14,0.54c-0.09,0.16-0.22,0.29-0.38,0.37
					C94.27,43.59,94.09,43.63,93.89,43.63z M93.85,43.43c0.16,0,0.3-0.04,0.43-0.11c0.13-0.08,0.23-0.18,0.31-0.31
					c0.08-0.13,0.12-0.27,0.12-0.43c0-0.16-0.04-0.31-0.11-0.44c-0.08-0.13-0.18-0.23-0.3-0.31c-0.13-0.08-0.27-0.11-0.42-0.11
					c-0.15,0-0.29,0.03-0.41,0.1c-0.12,0.07-0.22,0.16-0.3,0.28c-0.08,0.12-0.12,0.25-0.13,0.4v0.16c0.01,0.14,0.05,0.27,0.13,0.39
					c0.08,0.12,0.18,0.21,0.3,0.28C93.57,43.4,93.7,43.43,93.85,43.43z"/>
				<path class="st0" d="M96.42,43.63c-0.21,0-0.4-0.05-0.56-0.14c-0.16-0.09-0.29-0.22-0.38-0.38c-0.09-0.16-0.14-0.34-0.14-0.54
					c0-0.2,0.05-0.37,0.14-0.54c0.1-0.16,0.23-0.29,0.39-0.39c0.16-0.1,0.34-0.14,0.54-0.14c0.24,0,0.44,0.07,0.61,0.21
					c0.16,0.14,0.28,0.33,0.35,0.55l-1.76,0.68l-0.07-0.18l1.61-0.63l-0.05,0.07c-0.06-0.14-0.15-0.26-0.27-0.36
					s-0.26-0.15-0.44-0.15c-0.15,0-0.29,0.04-0.42,0.11c-0.12,0.08-0.22,0.18-0.3,0.3c-0.07,0.13-0.11,0.27-0.11,0.43
					c0,0.15,0.04,0.29,0.11,0.42c0.07,0.13,0.17,0.24,0.3,0.31c0.13,0.08,0.27,0.12,0.44,0.12c0.11,0,0.22-0.02,0.32-0.06
					c0.1-0.04,0.19-0.09,0.27-0.16l0.12,0.17c-0.1,0.08-0.21,0.14-0.33,0.19C96.68,43.61,96.55,43.63,96.42,43.63z"/>
				<path class="st0" d="M98.14,41.58l0.03,0.62l-0.03-0.08c0.04-0.12,0.12-0.23,0.21-0.32c0.1-0.09,0.2-0.16,0.32-0.21
					c0.12-0.05,0.23-0.07,0.34-0.07L99,41.75c-0.15,0-0.29,0.04-0.42,0.1c-0.13,0.07-0.22,0.16-0.3,0.28s-0.11,0.25-0.11,0.39v1.07
					h-0.24v-2.01H98.14z"/>
				<path class="st0" d="M99.69,43.59V41.8h-0.35v-0.22h0.35v-1.02c0-0.32,0.06-0.56,0.17-0.7c0.11-0.14,0.28-0.21,0.5-0.21
					c0.05,0,0.1,0.01,0.15,0.02s0.1,0.03,0.15,0.06l-0.1,0.17c-0.02-0.02-0.05-0.03-0.08-0.04c-0.03-0.01-0.06-0.01-0.1-0.01
					c-0.15,0-0.26,0.05-0.33,0.15c-0.07,0.1-0.11,0.29-0.11,0.55v1.02h0.67v0.22h-0.67v1.79H99.69z"/>
				<path class="st0" d="M101.97,43.63c-0.21,0-0.4-0.05-0.56-0.14c-0.16-0.09-0.29-0.22-0.38-0.38c-0.09-0.16-0.14-0.34-0.14-0.54
					c0-0.2,0.05-0.37,0.14-0.54c0.1-0.16,0.23-0.29,0.39-0.39c0.16-0.1,0.34-0.14,0.54-0.14c0.24,0,0.44,0.07,0.61,0.21
					c0.16,0.14,0.28,0.33,0.35,0.55l-1.76,0.68l-0.07-0.18l1.61-0.63l-0.05,0.07c-0.06-0.14-0.15-0.26-0.27-0.36
					s-0.26-0.15-0.44-0.15c-0.15,0-0.29,0.04-0.42,0.11c-0.12,0.08-0.22,0.18-0.3,0.3c-0.07,0.13-0.11,0.27-0.11,0.43
					c0,0.15,0.04,0.29,0.11,0.42c0.07,0.13,0.17,0.24,0.3,0.31c0.13,0.08,0.27,0.12,0.44,0.12c0.11,0,0.22-0.02,0.32-0.06
					c0.1-0.04,0.19-0.09,0.27-0.16l0.12,0.17c-0.1,0.08-0.21,0.14-0.33,0.19C102.23,43.61,102.1,43.63,101.97,43.63z"/>
				<path class="st0" d="M105.04,43.39c-0.09,0.08-0.2,0.13-0.31,0.18c-0.12,0.04-0.24,0.06-0.37,0.06c-0.21,0-0.39-0.04-0.55-0.14
					c-0.16-0.09-0.29-0.21-0.38-0.37s-0.14-0.34-0.14-0.54c0-0.2,0.05-0.38,0.14-0.54c0.1-0.16,0.22-0.28,0.38-0.37
					s0.33-0.14,0.52-0.14c0.14,0,0.27,0.02,0.39,0.06c0.12,0.04,0.22,0.1,0.31,0.17l-0.13,0.17c-0.07-0.06-0.16-0.11-0.25-0.14
					c-0.1-0.04-0.2-0.06-0.31-0.06c-0.15,0-0.29,0.04-0.41,0.11c-0.13,0.08-0.23,0.18-0.3,0.31c-0.07,0.13-0.11,0.27-0.11,0.43
					c0,0.15,0.04,0.3,0.11,0.42c0.07,0.13,0.17,0.23,0.3,0.31s0.27,0.11,0.43,0.11c0.1,0,0.2-0.02,0.29-0.05
					c0.09-0.03,0.17-0.08,0.24-0.13L105.04,43.39z"/>
				<path class="st0" d="M105.78,40.69h0.25v0.91h0.62v0.2h-0.62v1.79h-0.25V41.8h-0.43v-0.2h0.43V40.69z"/>
			</g>
		</g>
	</g>
</g>
</svg>
