<svg width="28" height="28" viewBox="0 0 28 28" fill="none" xmlns="http://www.w3.org/2000/svg">
<path d="M26.8333 3.5C25.7161 4.28806 24.4791 4.89079 23.17 5.285C22.4674 4.4771 21.5335 3.90447 20.4949 3.64458C19.4562 3.38469 18.3627 3.45006 17.3624 3.83186C16.3621 4.21366 15.5032 4.89347 14.9018 5.77934C14.3004 6.6652 13.9856 7.71439 14 8.785V9.95167C11.9497 10.0048 9.91814 9.55012 8.08617 8.62802C6.25419 7.70593 4.67869 6.34507 3.49999 4.66667C3.49999 4.66667 -1.16668 15.1667 9.33332 19.8333C6.93061 21.4643 4.06834 22.2821 1.16666 22.1667C11.6667 28 24.5 22.1667 24.5 8.75C24.4989 8.42503 24.4677 8.10086 24.4067 7.78167C25.5974 6.60741 26.4376 5.12483 26.8333 3.5V3.5Z" stroke="#0082E0" stroke-width="2" stroke-linecap="round" stroke-linejoin="round"/>
</svg>
